<svg xmlns="http://www.w3.org/2000/svg" viewBox="0 0 24 24" class="size-6">
  <!-- Background Circle -->
  <circle cx="12" cy="12" r="11" fill="#4a5568" />
  
  <!-- Shapes -->
  <path fill="#fff" d="M3 6a3 3 0 0 1 3-3h12a3 3 0 0 1 3 3v12a3 3 0 0 1-3 3H6a3 3 0 0 1-3-3V6Z" />
  <path fill="#f9c74f" d="M17.03 11.47a.75.75 0 0 1 .22.53.75.75 0 0 1-.22.53l-2.25 2.25a.75.75 0 0 1-1.06-1.06L15.44 12l-1.72-1.72a.75.75 0 1 1 1.06-1.06l2.25 2.25Z" />
  <path fill="#90be6d" d="M6.72 11.47a.75.75 0 0 0 0 1.06l2.25 2.25a.75.75 0 0 0 1.06-1.06L8.56 12l1.72-1.72a.75.75 0 1 0-1.06-1.06l-2.25 2.25Z" />
</svg>
